<svg width="14" height="14" viewBox="0 0 14 14" fill="none" xmlns="http://www.w3.org/2000/svg">
<path d="M0.287875 9.04138C0.726942 10.4768 1.61524 11.7333 2.82199 12.6259C4.02875 13.5186 5.49021 14.0003 6.99125 14C10.8622 14 14 10.8658 14 7C14 3.13425 10.8623 5.24811e-07 6.99213 5.24811e-07C5.21524 -0.00068686 3.50449 0.673889 2.20627 1.88714C0.908062 3.10038 0.119406 4.76163 0 6.5345L0.002625 6.53975L3.76863 8.08763C4.10828 7.86275 4.51057 7.75154 4.9175 7.77L6.6325 5.2815L6.63162 5.2465C6.63232 4.54069 6.91295 3.86398 7.41195 3.36482C7.91095 2.86565 8.58757 2.5848 9.29338 2.58388C9.99918 2.5848 10.6758 2.86565 11.1748 3.36482C11.6738 3.86398 11.9544 4.54069 11.9551 5.2465C11.9549 5.60116 11.8838 5.95221 11.7462 6.27907C11.6086 6.60594 11.4071 6.90207 11.1536 7.15011C10.9001 7.39815 10.5997 7.59312 10.2699 7.7236C9.94009 7.85408 9.58758 7.91745 9.233 7.91L6.7795 9.66C6.78782 9.98416 6.71497 10.3053 6.56758 10.5941C6.42018 10.8829 6.20292 11.1303 5.93555 11.3138C5.66817 11.4972 5.35918 11.611 5.03666 11.6446C4.71414 11.6782 4.38833 11.6306 4.08887 11.5063C3.80146 11.3865 3.54709 11.1993 3.34728 10.9605C3.14746 10.7217 3.00807 10.4383 2.94088 10.1343L0.28875 9.04138H0.287875Z" fill="black"/>
<path d="M4.2595 11.0976C4.62405 11.2368 5.02847 11.2285 5.38699 11.0744C5.74551 10.9204 6.02994 10.6328 6.17994 10.2725C6.32995 9.91232 6.33375 9.50783 6.19052 9.14486C6.0473 8.78189 5.76832 8.48898 5.41275 8.32825C5.0602 8.18114 4.66465 8.17488 4.30762 8.31075L5.20275 8.68175C5.33661 8.73748 5.45819 8.81903 5.56054 8.92175C5.66289 9.02446 5.74401 9.14633 5.79926 9.2804C5.85451 9.41446 5.88281 9.55809 5.88255 9.7031C5.88229 9.8481 5.85348 9.99163 5.79775 10.1255C5.74202 10.2594 5.66047 10.3809 5.55775 10.4833C5.45503 10.5856 5.33317 10.6668 5.1991 10.722C5.06504 10.7773 4.9214 10.8056 4.7764 10.8053C4.6314 10.805 4.48786 10.7762 4.354 10.7205L3.48775 10.3617C3.64539 10.6937 3.9203 10.9555 4.2595 11.0967V11.0976ZM7.51975 5.2465C7.51998 5.71698 7.70686 6.16816 8.03938 6.501C8.3719 6.83385 8.82289 7.02118 9.29337 7.02187C9.76386 7.02118 10.2148 6.83385 10.5474 6.501C10.8799 6.16816 11.0668 5.71698 11.067 5.2465C11.0663 4.77632 10.8792 4.32559 10.5467 3.99312C10.2143 3.66065 9.76355 3.47357 9.29337 3.47287C8.82319 3.47357 8.37247 3.66065 8.04 3.99312C7.70753 4.32559 7.52044 4.77632 7.51975 5.2465V5.2465ZM9.296 3.91037C9.47111 3.91049 9.64449 3.94509 9.80624 4.01221C9.96798 4.07934 10.1149 4.17766 10.2387 4.30157C10.3624 4.42547 10.4605 4.57254 10.5274 4.73437C10.5944 4.89621 10.6287 5.06963 10.6286 5.24475C10.6285 5.41987 10.5939 5.59325 10.5268 5.75499C10.4597 5.91673 10.3613 6.06367 10.2374 6.18742C10.1135 6.31116 9.96645 6.40929 9.80462 6.4762C9.64279 6.54311 9.46936 6.57749 9.29425 6.57737C8.94058 6.57714 8.60149 6.43643 8.35158 6.18618C8.10166 5.93594 7.96139 5.59666 7.96162 5.243C7.96185 4.88933 8.10257 4.55024 8.35281 4.30033C8.60306 4.05041 8.94233 3.91014 9.296 3.91037V3.91037Z" fill="black"/>
</svg>
